<?xml version="1.0" standalone="no"?>
<!DOCTYPE svg PUBLIC "-//W3C//DTD SVG 1.1//EN" "http://www.w3.org/Graphics/SVG/1.1/DTD/svg11.dtd" >
<svg xmlns="http://www.w3.org/2000/svg">
<metadata>Generated by IcoMoon</metadata>
<defs>
<font id="icomoon" horiz-adv-x="1024">
<font-face units-per-em="1024" ascent="896" descent="-128" />
<missing-glyph horiz-adv-x="1024" />
<glyph unicode="&#x20;" d="" />
<glyph unicode="&#xe900;" horiz-adv-x="3106" d="M251.259 156.783c-47.702-17.381-194.937-243.233 140.947-257.962 154.882-6.789 328.19 42.934 445.363 98.73 466.809 222.286 442.715 548.948 243.565 571.69-23.907-231.064-166.558-309.134-352.572-420.848-75.392-45.28-168.119-93.825-268.178-116.799-51.583-11.842-113.141-23.888-164.169-3.748-57.778 22.808-47.961 65.789-44.956 128.936z" />
<glyph unicode="&#xe901;" horiz-adv-x="3106" d="M260.484-78.872c31.86-12.289 74.499-20.642 130.619-23.103 154.882-6.789 328.19 42.931 445.363 98.726 290.265 138.219 390.721 316.799 377.319 437.565-0.764 6.897-5.881 45.637-31.060 81.479 20.382-38.887 15.258-105.692 6.465-127.336-118.928-292.719-545.715-517.149-928.706-467.331z" />
<glyph unicode="&#xe902;" horiz-adv-x="3106" d="M675.76-127.86c197.409-8.335 400.973 52.102 429.295 227.273-56.888-45.23-127.805-132.424-297.112-189.64-40.815-13.791-132.183-37.633-132.183-37.633z" />
<glyph unicode="&#xe903;" horiz-adv-x="3106" d="M1041.357 887.644c-4.703-1.034-5.986-2.242-16.624-9.42-113.054-76.268-239.59-156.118-360.468-213.968 0 0-11.225-9.355-11.604-15.359-0.375-6.004 1.582-15.406 8.249-19.849l55.327-36.884c0 0-236.916-257.745-372.965-262.877 0 0 151.289 72.848 228.444 207.11 33.759 58.751 50.585 133.077 37.223 221.741-4.743 31.478-12.361 56.571-22.192 76.261-80.517 161.258-309.815-39.409-329.876-61.172-14.256-15.467-133.012-132.95-128.319-318.417 5.611-50.805 19.856-94.867 43.438-129.686 117.364-173.25 421.587-51.95 679.494 270.928 73.482 91.995 141.689 193.492 189.777 291.234-0.021-0.040 0.097 0.357 0.097 0.357zM155.989 311.128l0.011-0.029c-51.5-28.105-154.396-63.63-154.396-63.63 89.562 0.047 175.001 20.764 182.122 22.53-4.731 5.402-9.24 11.096-13.449 17.168-5.265 7.593-10.022 15.586-14.289 23.961zM238.599 359.508c-59.518 75.865 37.838 292.701 138.366 321.512 78.055 22.368 73.555-108.355-5.434-201.614-78.992-93.259-132.932-119.898-132.932-119.898z" />
<glyph unicode="&#xe904;" horiz-adv-x="3106" d="M250.812 340.646c-4.158-1.146-34.693 9.29-43.914 17.871-58.052 53.99-56.758 174.393-8.259 293.27 48.498 118.874 172.763 185.773 223.698 163.632 60.988-31.363 27.395-182.327 9.164-215.806 2.713 41.929-3.597 67.508-24.851 78.859-39.489 21.085-105.872-37.749-148.269-131.408-41.55-91.8-44.639-182.969-7.568-206.418z" />
<glyph unicode="&#xe905;" horiz-adv-x="3106" d="M169.124 286.292v0zM181.845 270.021c-55.879-13.276-116.597-21.052-181.845-21.849 44.033 5.369 104.186 17.099 169.124 38.119l12.721-16.271zM342.125 328.631c-38.545-3.373-48.351 0.386-59.94 2.937 168.796 94.002 334.424 242.97 286.121 527.909 42.822-48.588 72.117-206.566 0.414-326.748-45.831-76.816-118.961-158.684-226.595-204.098z" />
<glyph unicode="&#xe906;" horiz-adv-x="3106" d="M911.174 470.428c-315.152-264.758-626.091-347.776-740.555-182.706-31.417 45.309-44.855 104.813-42.484 175.092 5.005-53.95 19.467-100.625 44.196-137.134 117.364-173.25 421.586-51.951 679.494 270.928 73.482 91.995 141.69 193.492 189.777 291.234 0 0 2.803-3.87 2.407-17.045-2.076-68.733-4.040-289.462-56.455-410.26-1.841-4.238-6.757-12.591-6.757-12.591-18.57-25.219-48.127 13.748-69.623 22.483z" />
<glyph unicode="&#xe907;" horiz-adv-x="3106" d="M1465.638 636.529l-5.892-20.036h349.484l-4.123-279.353h-89.583l-98.42 44.199-20.628-41.255h-118.46c27.503 32.613 49.799 66.992 66.891 103.137 17.088 36.148 30.743 80.74 40.959 133.783h-24.163c-15.716-51.86-35.853-99.598-60.408-143.21-24.559-43.615-44.891-74.455-60.999-92.532h-159.473c29.86 27.896 97.494 62.671 125.584 104.316 28.094 41.648 50.981 85.457 68.661 131.426h-27.111l-37.72-77.205h-116.691c31.828 43.219 54.614 89.584 68.366 139.087l103.724-2.357zM1786.837 862.84v-211.579h-435.533v211.579h435.533zM1460.334 775.616h212.17v49.507h-212.17v-49.507zM1460.334 687.215h212.17v48.916h-212.17v-48.916zM1668.377 577.004c-3.142-31.038-2.425-65.259-7.925-92.56-5.495-27.301-17.614-47.705-26.256-71.281l68.361-29.464 7.074 193.305h-41.255zM2311.95 786.813v-58.934h140.266l1.769-45.381h-142.035v-78.384h127.891v-265.796h-347.719c-0.393 87.223 0.591 174.252 2.944 261.082 34.577 0 68.758 0.588 102.55 1.766v185.647h114.334zM2282.483 878.162l-23.096-31.233h202.851v-39.489l-390.743-1.178c1.178-132.799-0.786-229.651-5.892-290.549-5.11-60.902-8.645-99.403-10.609-115.512-1.968-16.108-4.912-36.541-8.843-61.295l-143.581-0.588c3.142 7.070 35.046 33.399 41.918 78.971 6.876 45.579 11.496 188.789 13.852 429.64h168.27c-1.571 10.999 24.252 21.413 20.321 31.233h135.552zM2195.847 560.502v-179.751h137.318v179.751h-137.318zM3092.253 861.074v-37.72h-86.045c0-71.115 1.178-134.766 3.535-190.951h90.762l-0.591-41.255h-91.937v-252.242h-115.516v252.242h-119.048c-4.324-89.187-21.611-173.661-51.864-253.421h-131.992c20.822 53.828 46.83 98.521 54.491 134.078s14.246 75.339 19.745 119.343h-98.424v41.255h98.424c3.142 127.299 4.321 190.951 3.535 190.951h-87.814v38.307l512.738-0.587zM2778.128 823.354l-1.766-190.951h117.278v190.951h-115.512z" />
<glyph unicode="&#xe908;" horiz-adv-x="3106" d="M1280.823 250.004h1819.091v-17.749h-1819.091v17.749z" />
<glyph unicode="&#xe909;" horiz-adv-x="3106" d="M1266.2 56.356v-25.125c13.276 1.387 28.61 2.101 46.091 2.101 8.404 0.67 18.152 1.027 29.327 1.027 9.078 0 24.455 0 46.138 0 21.64 0 37.017 0 46.095 0 10.461 0 19.222 0 26.195 0 6.977 0 16.768-0.357 29.33-1.027l19.892-2.101v25.125c-25.838-3.485-66.343-5.229-121.512-5.229-23.784 0-44.393 0.357-61.828 1.070-18.865 0-32.501 0.313-40.862 1.031l-18.865 3.128z" />
<glyph unicode="&#xe90a;" horiz-adv-x="3106" d="M1801.872 160.12c4.202-13.993 8.404-24.455 12.562-31.474 2.101-4.872 5.276-10.461 9.431-16.765 3.488-5.589 6.663-10.461 9.434-14.663 1.431-2.101 3.175-4.516 5.229-7.33 1.431-2.774 2.818-5.232 4.205-7.333 1.384-1.387 3.485-3.488 6.303-6.259 4.202-4.916 7.69-8.761 10.461-11.536 7.69-7.687 15.377-14.663 23.067-20.966l11.535-9.434 18.865 10.461c-3.532 2.818-8.047 5.946-13.636 9.434-4.915 3.532-8.404 5.946-10.505 7.334-4.158 4.202-8.36 8.047-12.562 11.532-2.771 2.101-4.872 3.845-6.259 5.232-8.404 7.69-13.993 13.276-16.764 16.765-3.532 4.202-6.303 8.404-8.404 12.606-0.717 0.674-1.387 2.104-2.101 4.158-3.488 4.202-5.589 7.69-6.259 10.508-3.532 4.202-6.303 9.074-8.407 14.663-2.771 6.303-5.229 11.892-7.33 16.765l-2.101 8.36-16.764-2.058zM1745.316 156.945c-1.431-2.771-2.815-6.259-4.202-10.461-4.202-10.461-6.973-17.121-8.404-19.892-1.387-2.101-2.771-4.562-4.158-7.333-1.431-3.532-2.818-6.303-4.202-8.404-2.818-4.202-5.946-9.435-9.435-15.737-3.485-4.872-4.202-5.589-2.101-2.058-4.202-5.586-7.33-9.431-9.431-11.532-4.205-3.488-7.69-6.306-10.461-8.407-3.488-4.155-6.663-7.33-9.435-9.431-9.074-8.36-16.094-13.95-20.966-16.765l-6.306-4.158 19.939-11.535c9.748 8.36 17.438 15.38 23.024 20.966 4.205 4.875 8.407 9.391 12.609 13.593 4.159 5.589 8.36 10.818 12.562 15.737 4.202 5.586 8.36 12.202 12.562 19.892 1.387 2.101 2.818 4.872 4.202 8.407 3.488 5.586 5.946 9.744 7.334 12.562 1.384 2.771 3.485 6.256 6.256 10.461 2.104 2.814 3.535 4.915 4.205 6.303l6.303 6.259-19.896 11.532zM1714.915 67.891v-23.071c16.051 2.104 27.586 3.175 34.559 3.175h6.303c-0.714-5.586-1.384-12.249-2.101-19.939 0-4.872-0.357-8.36-1.027-10.461-0.717-5.586-0.717-6.303 0-2.101-1.431-6.973-2.818-11.845-4.202-14.664-2.101-4.872-4.205-10.105-6.306-15.69-0.67-1.431-1.741-3.532-3.128-6.306-1.387-3.485-2.457-5.946-3.128-7.33-2.818-4.919-6.306-9.074-10.508-12.562-3.485-4.202-5.946-6.663-7.33-7.333-1.387-1.431-2.461-2.458-3.132-3.175-1.384-0.67-3.128-1.74-5.229-3.128-2.818-1.387-4.919-2.458-6.303-3.128-4.205-3.532-9.435-6.663-15.737-9.435l-9.391-6.303 16.768-16.765c9.744 8.404 17.791 15.020 24.094 19.892 1.387 1.431 3.488 3.175 6.259 5.233 2.818 2.815 4.919 4.915 6.303 6.303 3.488 2.101 6.62 5.229 9.434 9.435 2.771 3.485 4.872 6.659 6.26 9.431 0.713 1.387 1.431 2.461 2.101 3.132 2.818 4.202 5.229 8.404 7.334 12.606 2.101 3.488 3.171 6.616 3.171 9.434 0.67 2.054 1.387 3.798 2.101 5.229 2.058 6.973 3.132 11.178 3.132 12.562 0.67 2.101 1.027 3.488 1.027 4.202 1.431 5.589 2.458 10.822 3.175 15.694 0.67 2.101 1.027 4.916 1.027 8.404s0.36 6.259 1.031 8.36l1.070 8.404h68.088c-0.67-9.074-1.74-20.966-3.128-35.63-2.771-36.347-4.202-53.781-4.202-52.397-0.67-4.202-2.101-8.047-4.158-11.536-0.714-0.67-1.431-1.384-2.101-2.101-1.431-1.384-2.458-2.415-3.175-3.128-2.101 0-4.516 0-7.33 0 2.814 0 1.431-0.357-4.159-1.027-5.589-1.431-11.535-1.431-17.838 0l-9.434 1.027 10.508-21.997c6.259 0 11.845 0.36 16.764 1.031 7.643 0.714 12.919 1.741 15.69 3.171 2.105 0.674 4.876 1.744 8.407 3.132l4.155 1.027c2.104 7.020 3.845 11.535 5.276 13.636 2.058 2.818 3.488 8.047 4.159 15.737 1.431 7.643 2.457 27.226 3.175 58.654l1.027 47.164c-11.175-2.101-32.145-3.171-62.855-3.171-32.145 0-53.111 1.070-62.859 3.171l-13.637 3.132z" />
<glyph unicode="&#xe90b;" horiz-adv-x="3106" d="M2233.822 168.48c0.714-5.589 1.387-11.175 2.101-16.764 0-4.202 0-11.178 0-20.97v-20.919c-9.791 0-16.765 0-20.966 0-5.589 0-11.179 0.31-16.765 1.027l-20.923 1.027c2.054-34.199 3.128-63.886 3.128-89.054v-47.121h18.865v19.896h36.66v-85.926h18.865v85.926h39.835v-14.664h18.822c0 67.057 0 103.717 0 110.020l1.074 20.923c-25.172-1.384-42.249-2.054-51.37-2.054h-8.36c0 31.428 0 46.091 0 43.99l1.031 3.128 3.171 3.175v2.058c-14.664 4.915-22.35 7.016-23.067 6.303h-2.101zM2110.209 165.353c-1.431-2.818-2.818-5.946-4.202-9.434-2.818-5.589-4.562-9.435-5.232-11.536-3.532-4.202-7.33-9.791-11.532-16.764-1.387-2.101-4.205-5.589-8.407-10.461-2.771-4.202-4.872-7.33-6.259-9.434-6.303-6.303-11.532-11.889-15.734-16.765l-7.333-6.303 16.764-11.535 6.303 5.232v-21.997c9.748 0.717 18.508 1.744 26.199 3.175 2.057 0 3.488 0 4.158 0h3.175v-41.936c-9.077 0-18.508 0.717-28.299 2.101 0.67-0.714-0.357-0.714-3.132 0l-13.633 3.132v-21.997c5.586 0.717 11.845 1.387 18.865 2.101 9.074 0.717 15.020 1.031 17.791 1.031h8.407v-56.556l-11.535-17.838 8.36-19.892c8.404 8.404 15.737 15.020 22.040 19.892 2.058 1.431 4.872 3.175 8.361 5.233 3.488 2.815 6.303 4.915 8.404 6.303 5.589 2.815 11.178 5.229 16.764 7.33l8.36 4.206-8.36 19.892c-9.788-7.69-18.195-13.589-25.168-17.791l-11.536-7.333v56.556c4.919 0 11.536-0.314 19.939-1.031 2.058-0.714 3.802-1.027 5.233-1.027l14.663-1.074v21.997c-22.354-4.158-33.532-5.946-33.532-5.232h-6.303v41.936c2.101 0 5.946-0.357 11.536-1.074 3.488-0.67 6.303-1.027 8.404-1.027l14.664-1.074v21.997c-20.967-3.488-35.273-5.232-42.963-5.232-9.074 0-18.195 1.074-27.269 3.175l-12.562 3.131c0.714 2.101 3.485 5.586 8.404 10.461 1.387 1.431 3.128 3.485 5.233 6.303 2.771 2.771 4.515 4.872 5.229 6.303l3.128 4.159c21.683 0 35.276 0 40.862 0 7.020 0 12.609-0.36 16.768-1.031l13.632-2.101v23.071c-18.865-4.202-33.885-6.303-45.064-6.303h-17.791c7.69 11.175 12.562 17.791 14.664 19.892 2.101 4.202 4.872 7.020 8.36 8.404l4.202 3.132v2.101c-14.664 8.36-21.997 12.206-21.997 11.535h-1.027zM2235.923 11.292h-36.66v81.767h36.66v-81.767zM2294.624 11.292h-39.835v81.767h39.835v-81.767z" />
<glyph unicode="&#xe90c;" horiz-adv-x="3106" d="M2575.692 168.48l-10.508-11.535c5.589-4.872 11.892-10.461 18.865-16.764 4.205-4.159 7.333-6.973 9.434-8.36l9.435-8.404c-25.172 0-41.936 0-50.297 0-11.175 0-19.892 0-26.199 0-12.562 0-20.966 0.357-25.168 1.074l-14.663 2.101c0.713-8.407 1.074-11.178 1.074-8.407 1.384-28.657 2.101-47.835 2.101-57.626 0-15.377-0.717-27.939-2.101-37.731-0.717-9.077-1.744-17.125-3.175-24.098 0-2.101-0.314-5.229-1.031-9.434 0-3.485-0.357-6.256-1.027-8.357-1.431-5.589-3.175-11.178-5.276-16.768-3.488-4.915-6.259-10.148-8.36-15.737-2.815-3.485-6.303-7.33-10.461-11.531l-5.276-7.334 16.768-8.36c2.101 3.488 4.916 7.69 8.404 12.562 2.101 3.488 3.845 6.306 5.229 8.407 4.205 5.586 7.69 11.488 10.461 17.791 2.101 6.303 3.845 13.279 5.276 20.97 0.67 7.687 0.67 8.717 0 3.128 1.387 9.074 2.771 16.051 4.158 20.966 1.431 8.36 2.101 27.586 2.101 57.626v43.994c46.091 0 76.491 0 91.158 0 19.579 0 34.602 0 45.064 0 20.966 0 33.529-0.36 37.731-1.031l16.764-2.101v25.125c-24.455-3.485-45.421-5.229-62.855-5.229h-29.374l11.535 16.765c-11.178 7.69-20.253 14.35-27.226 19.939 0.67-0.714 0.357-0.357-1.074 1.027l-8.36 7.333h-3.128zM2584.049 101.42v-92.186c-18.148 0-29.327 0-33.529 0-6.303 0-11.175 0.314-14.664 1.031l-12.562 1.027c0.67-14.664 1.387-27.943 2.101-39.788 0-9.791 0-20.966 0-33.529v-28.3h16.765v17.791h120.485v-17.791h15.69c0 41.219 0 67.417 0 78.592l1.074 23.024c-8.404-0.67-16.408-1.384-24.098-2.058-6.303 0-15.377 0-27.269 0h-25.125v38.761c20.966 0 34.916 0 41.889 0 9.121 0 16.094 0 20.966 0 10.508 0 17.838-0.357 21.997-1.070l13.636-2.104v25.172c-19.539-3.488-40.505-5.233-62.859-5.233h-35.629v25.128l4.202 5.229v3.175c-7.69 0.67-14.35 1.744-19.939 3.128-1.387 0-2.101 0-2.101 0h-1.031zM2662.645-56.796h-120.485v49.266h120.485v-49.266z" />
<glyph unicode="&#xe90d;" horiz-adv-x="3106" d="M2881.882 153.817v-25.172c20.253 2.101 34.246 3.175 41.936 3.175h8.36c0-47.522 0-71.263 0-71.263l-1.027-7.33c-12.609 0-22.354 0.357-29.374 1.027-7.69 0-15.334 0.717-23.024 2.101l-18.865 3.175v-25.172c6.259 0.717 13.633 1.074 21.993 1.074 16.768 1.387 27.586 2.058 32.501 2.058h15.694c0-1.387-0.357-3.488-1.027-6.259-0.717-2.815-1.074-5.229-1.074-7.33-0.67-6.306-2.101-12.609-4.159-18.869-0.714-1.384-1.431-3.845-2.101-7.33-1.431-4.919-2.457-8.047-3.175-9.435-2.101-4.919-4.158-9.074-6.259-12.562-0.714-1.431-1.74-3.175-3.171-5.276-1.387-2.771-2.414-4.872-3.131-6.26-0.714-0.714-2.101-2.457-4.202-5.229-2.771-2.818-4.872-4.919-6.259-6.303-6.303-6.306-12.249-11.179-17.838-14.664l-12.562-11.535 19.896-11.535h3.175c4.155 4.919 8.717 10.148 13.589 15.737 2.818 3.488 4.919 5.946 6.303 7.334 5.589 4.872 9.791 9.788 12.562 14.664 4.202 6.303 7.69 12.562 10.508 18.865 2.054 6.259 4.155 12.562 6.256 18.865 2.101 6.973 3.488 13.593 4.205 19.896 1.384 6.303 2.458 12.562 3.128 18.866l1.074 8.36h73.317v-122.586h18.869v122.586c15.377 0 30.401-0.67 45.064-2.058-0.717 0 0.357 0 3.128 0l19.939-1.074v25.172c-28.656-4.202-46.808-6.303-54.498-6.303h-13.633v78.592c7.687 0 13.633 0 17.834 0 4.159 0 8.721-0.357 13.593-1.074l16.765-2.101v25.172c-23.024-3.488-57.27-5.233-102.69-5.233-44.707 0-72.96 1.031-84.852 3.132l-16.768 2.101zM3019.131 53.228h-71.216c1.384 4.872 2.054 10.818 2.054 17.791 0.717 4.919 1.074 14.71 1.074 29.374v31.428h68.088v-78.592z" />
<glyph unicode="&#xe90e;" horiz-adv-x="3106" d="M251.686 156.428c-48.227-16.578-195.923-242.643 140.16-257.714 155.231-6.028 328.548 43.706 446.102 99.469 465.694 221.544 441.58 548.584 242.643 571.191-24.114-230.586-165.781-308.956-352.661-420.481-75.355-45.213-167.288-94.947-268.264-117.554-51.241-12.057-113.033-24.114-162.767-3.014-58.777 22.607-48.227 64.805-45.213 128.104z" />
<glyph unicode="&#xe90f;" horiz-adv-x="3106" d="M260.728-78.68c31.649-12.057 73.848-21.099 129.611-22.607 155.231-7.536 328.548 42.199 446.102 97.962 289.363 138.653 390.339 316.491 376.775 437.059 0 7.536-6.028 46.72-30.142 81.383 19.592-37.678 15.071-105.497 6.028-126.596-119.061-292.377-545.57-516.935-928.374-467.201z" />
<glyph unicode="&#xe910;" horiz-adv-x="3106" d="M675.181-128.414c197.43-7.536 400.889 52.749 429.524 227.572-57.27-45.213-128.104-132.625-296.899-189.895-40.692-13.564-132.625-37.678-132.625-37.678z" />
<glyph unicode="&#xe911;" horiz-adv-x="3106" d="M1041.406 887.371c-4.521-1.507-6.028-1.507-16.578-9.043-113.033-76.862-239.629-156.738-360.197-214.008 0 0-12.057-9.043-12.057-15.071s1.507-16.578 7.536-19.592l55.763-37.678c0 0-236.615-257.714-372.254-262.235 0 0 150.71 72.341 227.572 206.473 34.663 58.777 51.241 132.625 37.678 221.544-4.521 31.649-12.057 57.27-22.607 76.862-79.876 161.26-308.956-39.185-330.055-61.791-13.564-15.071-132.625-132.625-128.104-317.998 6.028-51.241 19.592-94.947 43.706-129.611 117.554-173.317 421.988-52.749 679.702 271.278 73.848 91.933 141.667 192.909 189.895 290.87 0 0 0 0 0 0zM155.231 311.659v0c-51.241-28.635-153.724-64.805-153.724-64.805 88.919 0 174.824 21.099 182.359 22.607-4.521 6.028-9.043 12.057-13.564 18.085-6.028 7.536-10.55 15.071-15.071 24.114zM238.122 359.886c-58.777 75.355 37.678 292.377 138.653 321.012 78.369 22.607 73.848-108.511-6.028-201.951-78.369-93.44-132.625-119.061-132.625-119.061z" />
<glyph unicode="&#xe912;" horiz-adv-x="3106" d="M250.179 340.294c-3.014-1.507-34.663 9.043-43.706 18.085-57.27 54.256-55.763 174.824-7.536 293.885 48.227 117.554 171.809 185.373 223.051 162.767 61.791-31.649 27.128-182.359 9.043-215.515 3.014 42.199-3.014 67.82-24.114 78.369-39.185 21.099-105.497-37.678-149.203-131.118-40.692-91.933-43.706-182.359-7.536-206.473z" />
<glyph unicode="&#xe913;" horiz-adv-x="3106" d="M168.795 286.038v0zM182.359 269.46c-55.763-12.057-117.554-21.099-182.359-21.099 43.706 4.521 103.99 16.578 168.795 37.678l13.564-16.578zM342.112 328.237c-39.185-3.014-48.227 0-60.284 3.014 168.795 94.947 334.576 242.643 286.349 527.485 42.199-48.227 72.341-206.473 0-325.534-45.213-76.862-119.061-159.753-226.065-204.966z" />
<glyph unicode="&#xe914;" horiz-adv-x="3106" d="M910.288 469.905c-314.984-263.743-625.447-346.633-739.986-182.359-31.649 45.213-45.213 105.497-42.199 174.824 4.521-54.256 19.592-100.976 43.706-137.146 117.554-173.317 421.988-51.241 679.702 271.278 73.848 91.933 141.667 192.909 189.895 290.87 0 0 3.014-3.014 3.014-16.578-3.014-69.327-4.521-289.363-57.27-409.931-1.507-4.521-6.028-13.564-6.028-13.564-19.592-24.114-48.227 13.564-70.834 22.607z" />
<glyph unicode="&#xe915;" horiz-adv-x="3106" d="M1464.901 635.686l-6.028-19.592h349.647l-4.521-278.814h-88.919l-97.962 43.706-21.099-40.692h-117.554c27.128 31.649 49.734 66.312 66.312 102.483s30.142 81.383 40.692 134.132h-24.114c-15.071-51.241-36.17-99.469-60.284-143.175s-45.213-73.848-61.791-91.933h-158.246c28.635 27.128 96.454 61.791 125.089 103.99 28.635 40.692 51.241 84.398 69.327 131.118h-27.128l-37.678-76.862h-117.554c31.649 42.199 54.256 88.919 67.82 138.653l103.99-3.014zM1785.914 863.258v-212.501h-435.552v212.501h435.552zM1460.38 775.846h212.501v49.734h-212.501v-49.734zM1460.38 686.927h212.501v49.734h-212.501v-49.734zM1668.36 576.909c-3.014-31.649-3.014-64.805-7.536-91.933-6.028-28.635-18.085-48.227-27.128-72.341l67.82-28.635 7.536 192.909h-40.692zM2311.892 786.396v-58.777h140.16l1.507-45.213h-141.667v-78.369h128.104v-265.25h-348.14c0 85.905 0 173.317 3.014 260.728 34.663 0 67.82 0 102.483 1.507v185.373h114.54zM2281.75 878.329l-22.607-31.649h201.951v-39.185l-390.339-1.507c1.507-132.625 0-229.079-6.028-290.87-4.521-60.284-7.536-99.469-10.55-114.54-1.507-16.578-4.521-37.678-9.043-61.791h-143.175c3.014 6.028 34.663 33.156 42.199 78.369s12.057 188.388 13.564 429.524h168.795c-1.507 10.55 24.114 21.099 19.592 31.649h135.639zM2195.845 560.331v-179.345h137.146v179.345h-137.146zM3091.062 860.244v-37.678h-85.905c0-70.834 1.507-134.132 4.521-189.895h90.426l-1.507-42.199h-91.933v-251.686h-114.54v251.686h-119.061c-4.521-88.919-21.099-173.317-52.749-253.193h-131.118c21.099 54.256 46.72 99.469 54.256 134.132 7.536 36.17 13.564 75.355 19.592 119.061h-97.962v42.199h97.962c3.014 126.596 4.521 189.895 3.014 189.895h-87.412v39.185l512.414-1.507zM2777.586 822.566l-1.507-189.895h117.554v189.895h-116.047z" />
<glyph unicode="&#xe916;" horiz-adv-x="3106" d="M1281.035 249.868h1818.723v-17.745h-1818.723v17.745z" />
<glyph unicode="&#xe917;" horiz-adv-x="3106" d="M1265.964 56.959v-25.621c13.564 1.507 28.635 1.507 46.72 1.507 7.536 1.507 18.085 1.507 28.635 1.507 9.043 0 24.114 0 46.72 0 21.099 0 36.17 0 45.213 0 10.55 0 19.592 0 27.128 0 6.028 0 16.578 0 28.635-1.507l19.592-1.507v25.621c-25.621-4.521-66.312-6.028-120.568-6.028-24.114 0-45.213 0-61.791 1.507-19.592 0-33.156 0-40.692 1.507l-19.592 3.014z" />
<glyph unicode="&#xe918;" horiz-adv-x="3106" d="M1800.985 159.442c4.521-13.564 9.043-24.114 13.564-30.142 1.507-6.028 4.521-10.55 9.043-18.085 3.014-4.521 6.028-10.55 9.043-13.564 1.507-3.014 3.014-4.521 6.028-7.536 1.507-3.014 3.014-6.028 3.014-7.536 1.507-1.507 4.521-3.014 7.536-6.028 3.014-4.521 7.536-9.043 10.55-12.057 7.536-7.536 15.071-15.071 22.607-21.099l12.057-9.043 18.085 10.55c-3.014 3.014-7.536 6.028-13.564 9.043-4.521 4.521-9.043 6.028-10.55 7.536-4.521 4.521-9.043 7.536-12.057 12.057-3.014 1.507-6.028 3.014-6.028 4.521-9.043 7.536-15.071 13.564-18.085 16.578-3.014 4.521-6.028 9.043-7.536 13.564-1.507 0-1.507 1.507-3.014 3.014-3.014 4.521-4.521 9.043-6.028 10.55-3.014 4.521-6.028 9.043-7.536 15.071-3.014 6.028-6.028 12.057-7.536 16.578l-3.014 9.043-16.578-3.014zM1745.222 156.428c-1.507-3.014-3.014-6.028-4.521-10.55-4.521-10.55-7.536-16.578-9.043-19.592 0-1.507-1.507-4.521-3.014-7.536s-3.014-6.028-4.521-7.536-6.028-10.55-9.043-16.578c-4.521-4.521-4.521-4.521-3.014-1.507-4.521-6.028-7.536-9.043-9.043-12.057-4.521-3.014-7.536-6.028-10.55-7.536-3.014-4.521-6.028-7.536-9.043-10.55-9.043-7.536-16.578-13.564-21.099-16.578l-6.028-3.014 19.592-12.057c9.043 7.536 18.085 15.071 22.607 21.099 4.521 4.521 9.043 9.043 13.564 13.564 3.014 6.028 7.536 10.55 12.057 15.071 4.521 6.028 7.536 12.057 12.057 19.592 1.507 3.014 3.014 6.028 4.521 9.043 3.014 6.028 6.028 10.55 7.536 12.057 1.507 3.014 3.014 7.536 6.028 10.55 1.507 3.014 3.014 6.028 4.521 7.536l6.028 6.028-19.592 10.55zM1715.080 67.509v-22.607c15.071 1.507 27.128 3.014 34.663 3.014h6.028c-1.507-6.028-1.507-12.057-3.014-19.592 0-4.521 0-9.043 0-10.55-1.507-6.028-1.507-6.028 0-3.014-1.507-6.028-3.014-10.55-4.521-13.564-1.507-4.521-4.521-10.55-6.028-16.578-1.507-1.507-1.507-3.014-3.014-6.028s-3.014-6.028-3.014-7.536c-3.014-4.521-7.536-9.043-10.55-12.057-4.521-4.521-6.028-6.028-7.536-7.536s-3.014-3.014-3.014-3.014c-1.507 0-3.014-1.507-6.028-3.014s-4.521-3.014-6.028-3.014c-4.521-4.521-9.043-7.536-15.071-9.043l-10.55-7.536 16.578-16.578c10.55 9.043 18.085 15.071 24.114 19.592 1.507 1.507 4.521 4.521 7.536 6.028 1.507 3.014 4.521 4.521 6.028 6.028 3.014 3.014 6.028 6.028 9.043 9.043 3.014 4.521 4.521 7.536 6.028 10.55 1.507 1.507 1.507 1.507 3.014 3.014 1.507 4.521 4.521 7.536 6.028 12.057 3.014 3.014 4.521 6.028 4.521 9.043s0 4.521 1.507 6.028c1.507 6.028 3.014 10.55 3.014 12.057 0 3.014 1.507 3.014 1.507 4.521 1.507 6.028 1.507 10.55 3.014 15.071 0 3.014 0 6.028 0 9.043s1.507 6.028 1.507 7.536l1.507 9.043h67.82c0-9.043-1.507-21.099-3.014-36.17-3.014-36.17-4.521-52.749-4.521-51.241 0-4.521-1.507-9.043-4.521-12.057 0 0-1.507-1.507-1.507-1.507-1.507-1.507-3.014-3.014-3.014-3.014-1.507 0-4.521 0-7.536 0 3.014 0 1.507-1.507-4.521-1.507-4.521-1.507-10.55-1.507-18.085 0l-9.043 1.507 10.55-22.607c6.028 0 12.057 0 16.578 1.507 7.536 0 13.564 1.507 16.578 3.014 1.507 0 4.521 1.507 7.536 3.014h4.521c1.507 7.536 4.521 12.057 6.028 15.071 1.507 1.507 3.014 7.536 3.014 15.071 1.507 7.536 3.014 27.128 3.014 58.777l1.507 46.72c-10.55-1.507-31.649-3.014-63.298-3.014s-52.749 1.507-61.791 3.014l-13.564 3.014z" />
<glyph unicode="&#xe919;" horiz-adv-x="3106" d="M2233.522 168.485c0-6.028 1.507-10.55 1.507-16.578 0-4.521 0-12.057 0-21.099v-21.099c-9.043 0-16.578 0-21.099 0s-10.55 0-16.578 1.507h-21.099c3.014-33.156 3.014-63.298 3.014-88.919v-46.72h19.592v19.592h36.17v-85.905h19.592v85.905h39.185v-13.564h19.592c0 66.312 0 102.483 0 110.018v19.592c-24.114-1.507-42.199-1.507-51.241-1.507h-7.536c0 31.649 0 46.72 0 43.706v3.014l4.521 3.014v3.014c-15.071 4.521-22.607 6.028-24.114 6.028h-1.507zM2109.94 165.47c-1.507-3.014-3.014-6.028-4.521-9.043-3.014-6.028-4.521-10.55-4.521-12.057-4.521-4.521-7.536-10.55-12.057-16.578-1.507-3.014-4.521-6.028-9.043-10.55-1.507-4.521-4.521-7.536-6.028-9.043-6.028-7.536-10.55-12.057-15.071-16.578l-7.536-7.536 16.578-10.55 6.028 4.521v-21.099c10.55 0 19.592 1.507 27.128 3.014 1.507 0 3.014 0 3.014 0h4.521v-42.199c-10.55 0-19.592 0-28.635 1.507 0 0-1.507 0-3.014 0l-13.564 3.014v-21.099c4.521 0 10.55 1.507 18.085 1.507 9.043 1.507 15.071 1.507 18.085 1.507h9.043v-57.27l-12.057-18.085 7.536-19.592c9.043 9.043 16.578 15.071 22.607 19.592 1.507 1.507 4.521 4.521 9.043 6.028 3.014 3.014 6.028 4.521 7.536 6.028 6.028 3.014 12.057 6.028 16.578 7.536l9.043 4.521-9.043 19.592c-9.043-7.536-18.085-13.564-24.114-18.085l-12.057-7.536v57.27c4.521 0 12.057 0 19.592-1.507 3.014 0 4.521-1.507 6.028-1.507h13.564v21.099c-21.099-3.014-33.156-6.028-33.156-4.521h-6.028v42.199c1.507 0 6.028-1.507 12.057-1.507 3.014 0 6.028-1.507 7.536-1.507h15.071v21.099c-21.099-3.014-36.17-4.521-43.706-4.521-9.043 0-18.085 0-27.128 3.014l-12.057 3.014c0 1.507 3.014 6.028 9.043 10.55 0 1.507 3.014 3.014 4.521 6.028 3.014 3.014 4.521 4.521 4.521 6.028l4.521 4.521c21.099 0 34.663 0 40.692 0s12.057 0 16.578-1.507l13.564-1.507v22.607c-19.592-4.521-34.663-6.028-45.213-6.028h-18.085c7.536 10.55 12.057 18.085 15.071 19.592 1.507 4.521 4.521 7.536 7.536 9.043l4.521 3.014v1.507c-15.071 9.043-21.099 12.057-21.099 12.057h-1.507zM2235.029 11.746h-36.17v81.383h36.17v-81.383zM2293.806 11.746h-39.185v81.383h39.185v-81.383z" />
<glyph unicode="&#xe91a;" horiz-adv-x="3106" d="M2575.634 168.485l-10.55-12.057c4.521-4.521 12.057-10.55 18.085-16.578 4.521-4.521 7.536-6.028 9.043-7.536l10.55-9.043c-25.621 0-42.199 0-51.241 0-10.55 0-19.592 0-25.621 0-12.057 0-21.099 0-25.621 1.507l-13.564 1.507c0-7.536 0-10.55 0-7.536 1.507-28.635 3.014-48.227 3.014-58.777 0-15.071-1.507-27.128-3.014-37.678 0-9.043-1.507-16.578-3.014-24.114 0-1.507 0-4.521 0-9.043 0-3.014-1.507-6.028-1.507-7.536-1.507-6.028-3.014-12.057-6.028-18.085-3.014-4.521-6.028-9.043-7.536-15.071-3.014-3.014-6.028-7.536-10.55-12.057l-6.028-7.536 16.578-7.536c3.014 3.014 6.028 7.536 9.043 12.057 1.507 4.521 4.521 6.028 6.028 9.043 3.014 6.028 7.536 10.55 9.043 18.085 3.014 6.028 4.521 12.057 6.028 21.099 0 7.536 0 7.536 0 3.014 1.507 9.043 3.014 15.071 4.521 21.099 1.507 7.536 1.507 27.128 1.507 57.27v43.706c46.72 0 76.862 0 91.933 0 19.592 0 34.663 0 43.706 0 21.099 0 34.663 0 37.678-1.507l18.085-1.507v25.621c-25.621-4.521-46.72-6.028-63.298-6.028h-30.142l12.057 16.578c-10.55 7.536-19.592 15.071-27.128 19.592 0 0 0 0-1.507 1.507l-7.536 7.536h-3.014zM2583.17 100.665v-91.933c-18.085 0-28.635 0-33.156 0-6.028 0-10.55 1.507-15.071 1.507l-12.057 1.507c0-15.071 1.507-28.635 1.507-40.692 0-9.043 0-21.099 0-33.156v-28.635h16.578v18.085h120.568v-18.085h16.578c0 42.199 0 67.82 0 78.369v24.114c-7.536-1.507-15.071-1.507-22.607-3.014-7.536 0-16.578 0-28.635 0h-24.114v39.185c21.099 0 34.663 0 42.199 0 9.043 0 15.071 0 19.592 0 10.55 0 18.085 0 22.607-1.507l13.564-1.507v25.621c-19.592-4.521-40.692-6.028-63.298-6.028h-34.663v25.621l4.521 4.521v3.014c-9.043 1.507-15.071 3.014-21.099 3.014-1.507 0-1.507 0-1.507 0h-1.507zM2661.539-56.073h-120.568v48.227h120.568v-48.227z" />
<glyph unicode="&#xe91b;" horiz-adv-x="3106" d="M2881.575 153.414v-24.114c19.592 1.507 34.663 3.014 42.199 3.014h7.536c0-48.227 0-72.341 0-72.341v-6.028c-13.564 0-22.607 0-30.142 0s-15.071 1.507-22.607 3.014l-19.592 3.014v-25.621c6.028 0 13.564 1.507 22.607 1.507 16.578 1.507 27.128 1.507 31.649 1.507h16.578c0-1.507 0-3.014-1.507-6.028 0-3.014-1.507-6.028-1.507-7.536 0-6.028-1.507-12.057-3.014-18.085-1.507-1.507-1.507-4.521-3.014-7.536-1.507-6.028-1.507-9.043-3.014-10.55-1.507-4.521-4.521-9.043-6.028-12.057 0-1.507-1.507-3.014-3.014-4.521-1.507-3.014-3.014-6.028-3.014-7.536-1.507 0-3.014-1.507-4.521-4.521-3.014-3.014-4.521-4.521-6.028-6.028-6.028-6.028-12.057-12.057-18.085-15.071l-12.057-12.057 19.592-10.55h3.014c4.521 4.521 9.043 9.043 13.564 15.071 3.014 3.014 4.521 6.028 6.028 7.536 6.028 4.521 10.55 10.55 13.564 15.071 3.014 6.028 7.536 12.057 10.55 18.085 1.507 6.028 3.014 13.564 6.028 19.592 1.507 6.028 3.014 13.564 3.014 19.592 1.507 6.028 3.014 12.057 4.521 19.592v7.536h73.848v-122.075h18.085v122.075c16.578 0 31.649 0 45.213-1.507 0 0 1.507 0 3.014 0l21.099-1.507v25.621c-28.635-4.521-46.72-6.028-55.763-6.028h-13.564v78.369c7.536 0 13.564 0 18.085 0s9.043-1.507 13.564-1.507l16.578-1.507v24.114c-22.607-3.014-57.27-4.521-102.483-4.521-43.706 0-72.341 0-84.398 3.014l-16.578 1.507zM3018.722 53.945h-70.834c1.507 4.521 1.507 10.55 1.507 16.578s1.507 15.071 1.507 30.142v31.649h67.82v-78.369z" />
</font>
</defs>
</svg>
